<svg xmlns="http://www.w3.org/2000/svg" version="1.1" xmlns:xlink="http://www.w3.org/1999/xlink" xmlns:svgjs="http://svgjs.dev/svgjs" viewBox="0 0 1.5560610409247728 1.3374877844992392"><g transform="matrix(1,0,0,1,0.12015120222508169,0.8246485822741574)"><rect width="1.5560610409247728" height="1.5560610409247728" x="-0.12015120222508169" y="-0.9339352104869242" fill="#262626"></rect><g><path d=" M 0.17407350000000002 0.19316250000000007 C 0.15907500000000002 0.19407150000000006 0.1531665 0.19861650000000008 0.139077 0.2017980000000001 C 0.12271500000000002 0.15816600000000008 0.024088500000000002 0.14816700000000008 0.022725000000000002 0.13089600000000007 C 0.020452500000000002 0.09817200000000006 0.09226350000000001 0.025452000000000086 0.13362300000000002 0.025452000000000086 C 0.13725900000000002 0.025452000000000086 0.14089500000000002 0.025906500000000054 0.14407650000000002 0.027270000000000072 C 0.1722555 0.03863250000000007 0.149985 0.07317450000000006 0.17089200000000002 0.07317450000000006 C 0.176346 0.07317450000000006 0.182709 0.06635700000000005 0.182709 0.06181200000000006 C 0.182709 0.029542500000000083 0.161802 0.00818100000000005 0.13635000000000003 0.00045450000000007984 C 0.13316850000000002 5.551115123125783e-17 0.12998700000000002 5.551115123125783e-17 0.12680550000000002 5.551115123125783e-17 C 0.06681150000000001 5.551115123125783e-17 -0.0054540000000000005 0.07771950000000005 -0.0054540000000000005 0.12089700000000006 C -0.0054540000000000005 0.17361900000000008 0.0659025 0.17452800000000007 0.10089900000000002 0.19725300000000007 C 0.10362600000000001 0.19907100000000008 0.10908000000000001 0.20543400000000006 0.109989 0.20952450000000006 C 0.07817400000000001 0.2204325000000001 0.025452000000000002 0.2508840000000001 0.008181 0.2804265000000001 C 0.008181 0.2836080000000001 0.022725000000000002 0.3036060000000001 0.024997500000000002 0.30724200000000007 C 0.027724500000000003 0.3117870000000001 0.0349965 0.3136050000000001 0.039996000000000004 0.3136050000000001 C 0.08544600000000001 0.3136050000000001 0.14407650000000002 0.2517930000000001 0.1422585 0.21997800000000006 C 0.14907600000000001 0.21770550000000008 0.182709 0.2090700000000001 0.18452700000000002 0.20679750000000008 L 0.182709 0.20634300000000008 L 0.1831635 0.2049795000000001 C 0.1831635 0.20407050000000007 0.179073 0.20134350000000006 0.17770950000000002 0.19952550000000008 C 0.17998200000000003 0.19907100000000008 0.1822545 0.19907100000000008 0.183618 0.19816200000000006 C 0.18180000000000002 0.19634400000000007 0.17770950000000002 0.19634400000000007 0.1749825 0.19588950000000008 M 0.030451500000000003 0.2836080000000001 C 0.0331785 0.27406350000000007 0.09090000000000001 0.23452200000000006 0.10726200000000001 0.2308860000000001 C 0.10726200000000001 0.23224950000000008 0.106353 0.23361300000000007 0.1058985 0.23452200000000006 C 0.09771750000000001 0.2513385000000001 0.061812000000000006 0.2845170000000001 0.03590550000000001 0.2845170000000001 C 0.034542 0.2845170000000001 0.032269500000000007 0.2840625000000001 0.030451500000000003 0.2836080000000001 M 0.1922470642089844 0.15771150000000006 C 0.1772485642089844 0.18043650000000006 0.1527055642089844 0.22134150000000008 0.1554325642089844 0.25315650000000006 C 0.1558870642089844 0.2690640000000001 0.1731580642089844 0.27906300000000006 0.18770206420898441 0.27906300000000006 C 0.20224606420898442 0.27815400000000007 0.21588106420898442 0.2554290000000001 0.21951706420898442 0.24315750000000008 C 0.22588006420898443 0.2267955000000001 0.22769806420898442 0.21725100000000008 0.22724356420898442 0.20270700000000008 C 0.22678906420898443 0.19816200000000006 0.22588006420898443 0.19361700000000007 0.22451656420898441 0.1904355000000001 C 0.23497006420898442 0.18816300000000008 0.2467870642089844 0.18361800000000006 0.2576950642089844 0.17634600000000006 C 0.24905956420898442 0.20543400000000006 0.2431510642089844 0.2349765000000001 0.2431510642089844 0.2608830000000001 C 0.2431510642089844 0.2763360000000001 0.24905956420898442 0.2908800000000001 0.26951206420898444 0.2972430000000001 C 0.2708755642089844 0.29769750000000006 0.27269356420898444 0.2981520000000001 0.27405706420898446 0.2981520000000001 C 0.29450956420898444 0.2981520000000001 0.31950706420898445 0.25633800000000007 0.32859706420898444 0.24588450000000006 L 0.32996056420898445 0.24315750000000008 L 0.3313240642089844 0.2422485000000001 L 0.3308695642089844 0.24088500000000007 L 0.33223306420898446 0.24043050000000007 C 0.3331420642089844 0.2381580000000001 0.33814156420898445 0.22997700000000007 0.33905056420898444 0.22906800000000008 C 0.3395050642089844 0.2267955000000001 0.3413230642089844 0.22588650000000007 0.3417775642089844 0.2236140000000001 L 0.3413230642089844 0.22315950000000007 C 0.3417775642089844 0.22134150000000008 0.3435955642089844 0.21997800000000006 0.3435955642089844 0.21816000000000008 C 0.3413230642089844 0.22134150000000008 0.33905056420898444 0.22543200000000008 0.33632356420898446 0.22861350000000008 C 0.33814156420898445 0.22406850000000006 0.3490495642089844 0.20770650000000007 0.3490495642089844 0.2049795000000001 L 0.3490495642089844 0.20407050000000007 C 0.3476860642089844 0.20543400000000006 0.34723156420898443 0.20770650000000007 0.3458680642089844 0.2090700000000001 C 0.34677706420898446 0.20725200000000008 0.34723156420898443 0.2049795000000001 0.3490495642089844 0.20270700000000008 L 0.3490495642089844 0.20088900000000007 L 0.34859506420898445 0.20088900000000007 L 0.34859506420898445 0.19861650000000008 C 0.3490495642089844 0.19816200000000006 0.3499585642089844 0.19588950000000008 0.35041306420898444 0.19543500000000008 C 0.3499585642089844 0.19361700000000007 0.3517765642089844 0.19270800000000007 0.3517765642089844 0.19179900000000008 C 0.35268556420898445 0.1904355000000001 0.3517765642089844 0.18998100000000007 0.3517765642089844 0.18861750000000008 L 0.3522310642089844 0.18589050000000007 C 0.34632256420898444 0.19270800000000007 0.34314106420898444 0.19861650000000008 0.3376870642089844 0.2049795000000001 C 0.3240520642089844 0.22134150000000008 0.29541856420898444 0.2663370000000001 0.27587506420898444 0.2836080000000001 L 0.27405706420898446 0.2836080000000001 C 0.2713300642089844 0.2776995000000001 0.2722390642089844 0.2704275000000001 0.2722390642089844 0.2640645000000001 C 0.2722390642089844 0.2349765000000001 0.29041906420898445 0.17271000000000009 0.3022360642089844 0.14453100000000008 C 0.32859706420898444 0.09726300000000007 0.33223306420898446 0.06772050000000007 0.3267790642089844 0.05499450000000006 C 0.3231430642089844 0.04635900000000004 0.3122350642089844 0.04454100000000005 0.30678106420898443 0.042723000000000066 L 0.30587206420898444 0.043177500000000035 C 0.2999635642089844 0.054085500000000064 0.29541856420898444 0.07090200000000008 0.29132806420898444 0.08226450000000007 C 0.2831470642089844 0.10362600000000005 0.2731480642089844 0.12862350000000006 0.2645125642089844 0.15498450000000008 C 0.25087756420898444 0.16816500000000006 0.23178856420898442 0.17407350000000008 0.21542656420898443 0.17770950000000008 C 0.21360856420898441 0.17725500000000008 0.21269956420898442 0.17634600000000006 0.21133606420898443 0.17498250000000007 C 0.21224506420898442 0.17361900000000008 0.21360856420898441 0.17089200000000007 0.21542656420898443 0.16952850000000008 C 0.2108815642089844 0.16089300000000006 0.1999735642089844 0.15725700000000006 0.19497406420898442 0.15725700000000006 C 0.19361056420898443 0.15725700000000006 0.1927015642089844 0.15725700000000006 0.1922470642089844 0.15771150000000006 M 0.19088356420898442 0.21997800000000006 C 0.19133806420898442 0.21770550000000008 0.19770106420898442 0.20270700000000008 0.20224606420898442 0.19179900000000008 C 0.2031550642089844 0.19270800000000007 0.20406406420898443 0.19270800000000007 0.2045185642089844 0.19270800000000007 L 0.20951806420898442 0.19270800000000007 C 0.2099725642089844 0.21452400000000008 0.19861006420898442 0.24724800000000008 0.18633856420898443 0.26451900000000006 C 0.1858840642089844 0.26451900000000006 0.18406606420898441 0.2649735000000001 0.18361156420898442 0.2654280000000001 C 0.18315706420898442 0.2640645000000001 0.18315706420898442 0.26224650000000005 0.18270256420898442 0.2608830000000001 C 0.1813390642089844 0.25315650000000006 0.1849750642089844 0.23679450000000007 0.19088356420898442 0.21997800000000006 M 0.5276594091796876 0.1904355000000001 C 0.5272049091796875 0.19089000000000006 0.5267504091796875 0.19089000000000006 0.5258414091796876 0.19089000000000006 L 0.5244779091796876 0.18907200000000007 L 0.5244779091796876 0.18770850000000006 L 0.5217509091796876 0.18770850000000006 C 0.5035709091796876 0.21497850000000007 0.47584640917968757 0.26224650000000005 0.4576664091796876 0.28315350000000006 C 0.4535759091796876 0.2881530000000001 0.45084890917968756 0.28951650000000007 0.45084890917968756 0.28951650000000007 C 0.4481219091796876 0.2799720000000001 0.4481219091796876 0.27497250000000006 0.4481219091796876 0.26451900000000006 C 0.4481219091796876 0.21997800000000006 0.47130140917968755 0.14680350000000006 0.4813004091796876 0.11407950000000006 C 0.4844819091796876 0.10271700000000006 0.5012984091796876 0.06363000000000008 0.4953899091796876 0.05363100000000004 L 0.49220840917968756 0.04726800000000003 L 0.49039040917968757 0.04590450000000007 L 0.4890269091796876 0.04635900000000004 L 0.4867544091796876 0.04590450000000007 L 0.4849364091796876 0.044086500000000084 C 0.48311840917968757 0.04363200000000006 0.4808459091796876 0.044086500000000084 0.4785734091796876 0.043177500000000035 C 0.4731194091796876 0.04454100000000005 0.4749374091796876 0.043177500000000035 0.4703924091796876 0.04681350000000006 C 0.4667564091796876 0.04817700000000008 0.4158524091796876 0.14725800000000006 0.41539790917968755 0.14907600000000007 C 0.40948940917968757 0.14589450000000007 0.4017629091796876 0.14180400000000007 0.3931274091796876 0.14180400000000007 C 0.3567674091796876 0.14180400000000007 0.32495240917968754 0.22179600000000008 0.32495240917968754 0.2513385000000001 C 0.32495240917968754 0.26770050000000006 0.34495040917968756 0.2799720000000001 0.36040340917968755 0.2808810000000001 C 0.3858554091796876 0.2826990000000001 0.42494240917968756 0.18634500000000007 0.43857740917968757 0.15725700000000006 C 0.42994190917968755 0.18634500000000007 0.4044899091796876 0.2681550000000001 0.43130540917968757 0.2990610000000001 C 0.43403240917968755 0.3022425000000001 0.4413044091796876 0.3031515000000001 0.44630390917968754 0.3054240000000001 C 0.44766740917968756 0.3058785000000001 0.44857640917968755 0.3063330000000001 0.44993990917968757 0.3063330000000001 C 0.46902890917968754 0.3063330000000001 0.5026619091796876 0.2567925000000001 0.5112974091796876 0.23634000000000008 L 0.5112974091796876 0.23543100000000008 L 0.5117519091796876 0.2340675000000001 L 0.5135699091796876 0.23270400000000008 C 0.5135699091796876 0.22997700000000007 0.5167514091796876 0.22861350000000008 0.5162969091796876 0.2267955000000001 L 0.5172059091796876 0.22543200000000008 C 0.5172059091796876 0.22270500000000007 0.5199329091796876 0.21861450000000007 0.5212964091796876 0.2163420000000001 C 0.5217509091796876 0.21588750000000007 0.5267504091796875 0.2049795000000001 0.5281139091796876 0.20225250000000006 C 0.5276594091796876 0.2017980000000001 0.5281139091796876 0.20088900000000007 0.5285684091796876 0.19952550000000008 L 0.5285684091796876 0.19725300000000007 C 0.5285684091796876 0.19725300000000007 0.5294774091796876 0.19679850000000007 0.5294774091796876 0.19634400000000007 C 0.5294774091796876 0.19588950000000008 0.5281139091796876 0.1945260000000001 0.5276594091796876 0.19407150000000006 L 0.5276594091796876 0.19179900000000008 C 0.5276594091796876 0.19089000000000006 0.5276594091796876 0.19089000000000006 0.5276594091796876 0.1904355000000001 M 0.3558584091796876 0.2640645000000001 C 0.35404040917968754 0.2599740000000001 0.3535859091796876 0.2558835000000001 0.3535859091796876 0.2513385000000001 C 0.3535859091796876 0.23361300000000007 0.38131040917968756 0.16452900000000006 0.4017629091796876 0.16271100000000008 C 0.4044899091796876 0.16271100000000008 0.4058534091796876 0.16271100000000008 0.40721690917968756 0.16407450000000007 L 0.4058534091796876 0.16680150000000007 C 0.39858140917968754 0.18270900000000007 0.3631304091796876 0.2617920000000001 0.3558584091796876 0.2640645000000001 M 0.6203902807617189 0.13453200000000007 C 0.6253897807617188 0.11953350000000007 0.6449332807617189 0.07044750000000005 0.6449332807617189 0.05999400000000005 C 0.6449332807617189 0.05681250000000007 0.6399337807617188 0.054085500000000064 0.6390247807617189 0.05181300000000005 C 0.6362977807617188 0.04681350000000006 0.6299347807617188 0.04590450000000007 0.6249352807617189 0.04590450000000007 C 0.6222082807617189 0.04590450000000007 0.6208447807617188 0.04726800000000003 0.6181177807617189 0.04863150000000005 L 0.6167542807617188 0.05090400000000006 C 0.6172087807617188 0.05181300000000005 0.5767582807617189 0.16271100000000008 0.5731222807617189 0.17543700000000007 C 0.5613052807617188 0.2122515000000001 0.5613052807617188 0.22952250000000007 0.5640322807617189 0.24906600000000007 C 0.5653957807617188 0.2558835000000001 0.5744857807617189 0.2736090000000001 0.5840302807617188 0.2736090000000001 C 0.5867572807617188 0.2736090000000001 0.5872117807617189 0.2745180000000001 0.5899387807617188 0.2754270000000001 L 0.5899387807617188 0.2745180000000001 L 0.5908477807617188 0.2736090000000001 C 0.5899387807617188 0.2736090000000001 0.5881207807617188 0.2722455000000001 0.5881207807617188 0.2704275000000001 L 0.5899387807617188 0.27088200000000007 C 0.5899387807617188 0.2663370000000001 0.5881207807617188 0.2613375000000001 0.5881207807617188 0.25633800000000007 C 0.5881207807617188 0.23270400000000008 0.5967562807617188 0.20634300000000008 0.6035737807617189 0.18361800000000006 C 0.6063007807617189 0.17543700000000007 0.6103912807617189 0.16634700000000008 0.6122092807617189 0.15771150000000006 C 0.6126637807617188 0.15634800000000007 0.6131182807617188 0.15543900000000008 0.6144817807617189 0.15453000000000006 C 0.6153907807617188 0.16634700000000008 0.6113002807617188 0.15862050000000008 0.6194812807617188 0.17089200000000007 L 0.6208447807617188 0.17180100000000006 C 0.6212992807617188 0.17180100000000006 0.6217537807617188 0.17180100000000006 0.6222082807617189 0.17180100000000006 C 0.6235717807617188 0.17180100000000006 0.6253897807617188 0.17225550000000006 0.6267532807617189 0.17225550000000006 C 0.6290257807617189 0.17225550000000006 0.6303892807617189 0.16998300000000008 0.6322072807617188 0.16907400000000006 C 0.6390247807617189 0.16680150000000007 0.6522052807617189 0.16634700000000008 0.6590227807617188 0.16634700000000008 C 0.6781117807617189 0.16634700000000008 0.7094722807617189 0.17452800000000007 0.7094722807617189 0.19361700000000007 C 0.7094722807617189 0.2267955000000001 0.6562957807617189 0.2704275000000001 0.6212992807617188 0.2722455000000001 C 0.6203902807617189 0.2722455000000001 0.6176632807617188 0.2722455000000001 0.6158452807617188 0.2722455000000001 C 0.6149362807617188 0.2722455000000001 0.6144817807617189 0.2722455000000001 0.6140272807617189 0.2722455000000001 C 0.6144817807617189 0.2704275000000001 0.6167542807617188 0.26770050000000006 0.6172087807617188 0.2663370000000001 L 0.6172087807617188 0.2649735000000001 C 0.6158452807617188 0.2663370000000001 0.6140272807617189 0.2695185000000001 0.6131182807617188 0.27088200000000007 L 0.6126637807617188 0.27088200000000007 L 0.6126637807617188 0.26770050000000006 C 0.6258442807617188 0.24815700000000007 0.6622042807617189 0.22634100000000007 0.6858382807617188 0.22634100000000007 C 0.6862927807617188 0.22634100000000007 0.6872017807617189 0.22634100000000007 0.6885652807617189 0.22543200000000008 C 0.6885652807617189 0.22543200000000008 0.6903832807617188 0.22543200000000008 0.6903832807617188 0.22543200000000008 L 0.6903832807617188 0.22452300000000008 L 0.6885652807617189 0.22452300000000008 L 0.6890197807617189 0.2236140000000001 L 0.6917467807617188 0.2236140000000001 L 0.6903832807617188 0.22315950000000007 L 0.6903832807617188 0.22270500000000007 C 0.6917467807617188 0.22270500000000007 0.6922012807617188 0.22270500000000007 0.6935647807617189 0.22315950000000007 L 0.6917467807617188 0.2204325000000001 L 0.6940192807617188 0.2204325000000001 C 0.6917467807617188 0.21770550000000008 0.6908377807617189 0.21816000000000008 0.6885652807617189 0.21588750000000007 L 0.6867472807617189 0.21361500000000008 C 0.6835657807617188 0.2122515000000001 0.6799297807617188 0.21179700000000007 0.6758392807617188 0.21179700000000007 C 0.6494782807617189 0.21179700000000007 0.6167542807617188 0.22997700000000007 0.5976652807617189 0.2486115000000001 C 0.5963017807617188 0.24906600000000007 0.5953927807617189 0.24997500000000009 0.5940292807617188 0.2508840000000001 L 0.5935747807617189 0.25315650000000006 C 0.5935747807617189 0.2536110000000001 0.5931202807617189 0.2545200000000001 0.5922112807617188 0.2545200000000001 C 0.5922112807617188 0.25633800000000007 0.5922112807617188 0.2586105000000001 0.5922112807617188 0.2599740000000001 C 0.5922112807617188 0.2704275000000001 0.6126637807617188 0.29678850000000007 0.6240262807617188 0.3004245000000001 L 0.6258442807617188 0.29997000000000007 L 0.6258442807617188 0.2995155000000001 C 0.6281167807617188 0.2995155000000001 0.6299347807617188 0.3004245000000001 0.6322072807617188 0.3004245000000001 C 0.6335707807617188 0.3004245000000001 0.6358432807617188 0.30087900000000006 0.6367522807617189 0.30178800000000006 L 0.6372067807617189 0.30087900000000006 C 0.6390247807617189 0.3004245000000001 0.6412972807617189 0.2995155000000001 0.6426607807617188 0.2995155000000001 C 0.6453877807617189 0.2981520000000001 0.6481147807617188 0.29769750000000006 0.6508417807617188 0.2963340000000001 L 0.6512962807617189 0.2963340000000001 C 0.6876562807617188 0.2899710000000001 0.7408327807617189 0.2422485000000001 0.7385602807617189 0.19861650000000008 C 0.7376512807617188 0.17543700000000007 0.7158352807617189 0.15634800000000007 0.6894742807617189 0.14816700000000008 C 0.6876562807617188 0.14771250000000008 0.6767482807617189 0.14634900000000006 0.6749302807617188 0.14498550000000007 C 0.6776572807617188 0.14453100000000008 0.6958372807617188 0.13544100000000006 0.6985642807617188 0.13362300000000008 C 0.6999277807617188 0.13362300000000008 0.7012912807617189 0.13362300000000008 0.7022002807617189 0.13271400000000005 L 0.7017457807617189 0.13135050000000006 C 0.7049272807617188 0.12998700000000007 0.7108357807617188 0.13089600000000007 0.7108357807617188 0.12771450000000006 L 0.7108357807617188 0.12635100000000007 C 0.7321972807617189 0.11771550000000006 0.7649212807617188 0.08726400000000006 0.7649212807617188 0.06453900000000007 C 0.7649212807617188 0.023634000000000044 0.7185622807617189 0.0077265000000000805 0.6853837807617189 0.0077265000000000805 C 0.6422062807617188 0.0077265000000000805 0.5926657807617188 0.02636100000000008 0.5685772807617189 0.05090400000000006 C 0.5667592807617189 0.05363100000000004 0.5640322807617189 0.055449000000000054 0.5640322807617189 0.05953950000000005 C 0.5640322807617189 0.06453900000000007 0.5667592807617189 0.07272000000000006 0.5717587807617188 0.07453800000000005 L 0.5735767807617188 0.07453800000000005 C 0.6063007807617189 0.045450000000000046 0.6508417807617188 0.03181500000000004 0.6944737807617188 0.03181500000000004 C 0.7108357807617188 0.03181500000000004 0.7440142807617188 0.03499650000000004 0.7394692807617189 0.05681250000000007 C 0.7321972807617189 0.08726400000000006 0.6612952807617188 0.12226050000000008 0.6349342807617189 0.13271400000000005 C 0.6308437807617189 0.13271400000000005 0.6267532807617189 0.13453200000000007 0.6231172807617188 0.13453200000000007 M 0.8853646684570313 0.2204325000000001 C 0.8880916684570314 0.20679750000000008 0.8903641684570314 0.18043650000000006 0.8903641684570314 0.15771150000000006 C 0.8903641684570314 0.15589350000000007 0.8908186684570314 0.15498450000000008 0.8899096684570313 0.15362100000000006 C 0.8858191684570313 0.14998500000000006 0.8844556684570314 0.14998500000000006 0.8826376684570314 0.14907600000000007 C 0.8803651684570314 0.14771250000000008 0.8708206684570314 0.14498550000000007 0.8680936684570314 0.14498550000000007 C 0.8635486684570314 0.14498550000000007 0.8590036684570314 0.14680350000000006 0.8562766684570314 0.14998500000000006 L 0.8571856684570314 0.15453000000000006 C 0.8380966684570313 0.17816400000000007 0.8035546684570314 0.23134050000000006 0.7744666684570314 0.26679150000000007 L 0.7735576684570313 0.2654280000000001 C 0.7717396684570313 0.2381580000000001 0.8044636684570314 0.17180100000000006 0.8044636684570314 0.14998500000000006 C 0.8044636684570314 0.14225850000000007 0.7917376684570314 0.13635000000000008 0.7844656684570314 0.13635000000000008 C 0.7826476684570314 0.13635000000000008 0.7812841684570314 0.13680450000000008 0.7794661684570314 0.13725900000000008 C 0.7799206684570313 0.14407650000000008 0.7758301684570313 0.15043950000000006 0.7735576684570313 0.15634800000000007 L 0.7567411684570314 0.19861650000000008 C 0.7490146684570314 0.21816000000000008 0.7431061684570314 0.23997600000000008 0.7431061684570314 0.2599740000000001 C 0.7431061684570314 0.2695185000000001 0.7599226684570314 0.2867895000000001 0.7708306684570314 0.2886075000000001 C 0.7803751684570314 0.2886075000000001 0.7899196684570314 0.28133550000000007 0.7962826684570314 0.2745180000000001 C 0.8199166684570314 0.24815700000000007 0.8521861684570314 0.20088900000000007 0.8603671684570314 0.18770850000000006 C 0.8580946684570314 0.21043350000000008 0.8558221684570314 0.22588650000000007 0.8521861684570314 0.24179400000000006 C 0.8490046684570314 0.24633900000000009 0.8399146684570313 0.2545200000000001 0.8317336684570313 0.26224650000000005 C 0.8067361684570313 0.28633500000000006 0.7799206684570313 0.32996700000000007 0.7703761684570314 0.3567825000000001 C 0.7708306684570314 0.35905500000000007 0.7662856684570314 0.36814500000000006 0.7662856684570314 0.3713265000000001 C 0.7662856684570314 0.3726900000000001 0.7794661684570314 0.3840525000000001 0.7799206684570313 0.38496150000000007 C 0.7812841684570314 0.3854160000000001 0.7826476684570314 0.3872340000000001 0.7826476684570314 0.3872340000000001 C 0.7853746684570314 0.3899610000000001 0.7958281684570314 0.3926880000000001 0.7999186684570314 0.3926880000000001 C 0.8008276684570313 0.3926880000000001 0.8026456684570313 0.3917790000000001 0.8040091684570314 0.3917790000000001 C 0.8058271684570314 0.3922335000000001 0.8117356684570314 0.3872340000000001 0.8135536684570314 0.3854160000000001 C 0.8449141684570314 0.35996400000000006 0.8630941684570314 0.3131505000000001 0.8735476684570314 0.27497250000000006 C 0.8749111684570314 0.26770050000000006 0.8794561684570315 0.2536110000000001 0.8817286684570314 0.24633900000000009 C 0.8821831684570314 0.2454300000000001 0.8989996684570314 0.23179500000000008 0.8989996684570314 0.22997700000000007 L 0.8821831684570314 0.24361200000000008 C 0.8817286684570314 0.24179400000000006 0.8885461684570314 0.23634000000000008 0.8903641684570314 0.2349765000000001 C 0.9212701684570314 0.2090700000000001 0.9203611684570314 0.21179700000000007 0.9335416684570315 0.20088900000000007 C 0.9285421684570314 0.20361600000000007 0.9171796684570314 0.21270600000000006 0.9089986684570314 0.21861450000000007 C 0.9130891684570314 0.21316050000000009 0.9289966684570314 0.20225250000000006 0.9353596684570313 0.19634400000000007 L 0.9380866684570314 0.19316250000000007 C 0.9380866684570314 0.19270800000000007 0.9380866684570314 0.19134450000000008 0.9371776684570314 0.19134450000000008 L 0.9367231684570314 0.19134450000000008 C 0.9362686684570314 0.19179900000000008 0.9362686684570314 0.19179900000000008 0.9358141684570314 0.19179900000000008 C 0.9344506684570314 0.19179900000000008 0.9335416684570315 0.1904355000000001 0.9326326684570314 0.18998100000000007 C 0.9317236684570314 0.18998100000000007 0.9312691684570313 0.18998100000000007 0.9308146684570314 0.1904355000000001 L 0.9312691684570313 0.18861750000000008 C 0.9103621684570313 0.19861650000000008 0.9035446684570314 0.20543400000000006 0.8853646684570313 0.2204325000000001 M 0.7871926684570314 0.3713265000000001 C 0.7862836684570313 0.3713265000000001 0.7853746684570314 0.3708720000000001 0.7853746684570314 0.3699630000000001 C 0.7881016684570313 0.3481470000000001 0.8299156684570314 0.2858805000000001 0.8440051684570313 0.27588150000000006 L 0.8440051684570313 0.2763360000000001 C 0.8399146684570313 0.2899710000000001 0.8071906684570314 0.3713265000000001 0.7871926684570314 0.3713265000000001 M 0.8062816684570314 0.3236040000000001 C 0.8008276684570313 0.3317850000000001 0.7949191684570314 0.3408750000000001 0.7903741684570313 0.34951050000000006 C 0.7894651684570314 0.3522375000000001 0.7849201684570314 0.3604185000000001 0.7840111684570313 0.3654180000000001 C 0.7844656684570314 0.3554190000000001 0.7985551684570313 0.32996700000000007 0.8062816684570314 0.3236040000000001 M 1.153062727294922 0.19316250000000007 C 1.1380642272949222 0.19407150000000006 1.132155727294922 0.19861650000000008 1.1180662272949222 0.2017980000000001 C 1.1017042272949222 0.15816600000000008 1.003077727294922 0.14816700000000008 1.0017142272949222 0.13089600000000007 C 0.9994417272949221 0.09817200000000006 1.0712527272949222 0.025452000000000086 1.1126122272949222 0.025452000000000086 C 1.1162482272949221 0.025452000000000086 1.119884227294922 0.025906500000000054 1.123065727294922 0.027270000000000072 C 1.1512447272949222 0.03863250000000007 1.1289742272949221 0.07317450000000006 1.1498812272949221 0.07317450000000006 C 1.155335227294922 0.07317450000000006 1.1616982272949221 0.06635700000000005 1.1616982272949221 0.06181200000000006 C 1.1616982272949221 0.029542500000000083 1.140791227294922 0.00818100000000005 1.115339227294922 0.00045450000000007984 C 1.1121577272949221 5.551115123125783e-17 1.1089762272949222 5.551115123125783e-17 1.105794727294922 5.551115123125783e-17 C 1.0458007272949221 5.551115123125783e-17 0.9735352272949221 0.07771950000000005 0.9735352272949221 0.12089700000000006 C 0.9735352272949221 0.17361900000000008 1.044891727294922 0.17452800000000007 1.0798882272949222 0.19725300000000007 C 1.082615227294922 0.19907100000000008 1.0880692272949222 0.20543400000000006 1.088978227294922 0.20952450000000006 C 1.057163227294922 0.2204325000000001 1.0044412272949221 0.2508840000000001 0.9871702272949221 0.2804265000000001 C 0.9871702272949221 0.2836080000000001 1.0017142272949222 0.3036060000000001 1.003986727294922 0.30724200000000007 C 1.006713727294922 0.3117870000000001 1.0139857272949222 0.3136050000000001 1.018985227294922 0.3136050000000001 C 1.064435227294922 0.3136050000000001 1.123065727294922 0.2517930000000001 1.1212477272949222 0.21997800000000006 C 1.128065227294922 0.21770550000000008 1.1616982272949221 0.2090700000000001 1.1635162272949222 0.20679750000000008 L 1.1616982272949221 0.20634300000000008 L 1.1621527272949221 0.2049795000000001 C 1.1621527272949221 0.20407050000000007 1.1580622272949221 0.20134350000000006 1.156698727294922 0.19952550000000008 C 1.1589712272949222 0.19907100000000008 1.161243727294922 0.19907100000000008 1.1626072272949222 0.19816200000000006 C 1.160789227294922 0.19634400000000007 1.156698727294922 0.19634400000000007 1.1539717272949221 0.19588950000000008 M 1.0094407272949222 0.2836080000000001 C 1.012167727294922 0.27406350000000007 1.069889227294922 0.23452200000000006 1.086251227294922 0.2308860000000001 C 1.086251227294922 0.23224950000000008 1.085342227294922 0.23361300000000007 1.0848877272949222 0.23452200000000006 C 1.0767067272949222 0.2513385000000001 1.040801227294922 0.2845170000000001 1.014894727294922 0.2845170000000001 C 1.0135312272949222 0.2845170000000001 1.011258727294922 0.2840625000000001 1.0094407272949222 0.2836080000000001 M 1.1712362915039065 0.15771150000000006 C 1.1562377915039064 0.18043650000000006 1.1316947915039064 0.22134150000000008 1.1344217915039063 0.25315650000000006 C 1.1348762915039063 0.2690640000000001 1.1521472915039064 0.27906300000000006 1.1666912915039065 0.27906300000000006 C 1.1812352915039064 0.27815400000000007 1.1948702915039064 0.2554290000000001 1.1985062915039064 0.24315750000000008 C 1.2048692915039063 0.2267955000000001 1.2066872915039064 0.21725100000000008 1.2062327915039064 0.20270700000000008 C 1.2057782915039064 0.19816200000000006 1.2048692915039063 0.19361700000000007 1.2035057915039065 0.1904355000000001 C 1.2139592915039064 0.18816300000000008 1.2257762915039063 0.18361800000000006 1.2366842915039065 0.17634600000000006 C 1.2280487915039064 0.20543400000000006 1.2221402915039064 0.2349765000000001 1.2221402915039064 0.2608830000000001 C 1.2221402915039064 0.2763360000000001 1.2280487915039064 0.2908800000000001 1.2485012915039064 0.2972430000000001 C 1.2498647915039065 0.29769750000000006 1.2516827915039064 0.2981520000000001 1.2530462915039065 0.2981520000000001 C 1.2734987915039064 0.2981520000000001 1.2984962915039064 0.25633800000000007 1.3075862915039065 0.24588450000000006 L 1.3089497915039063 0.24315750000000008 L 1.3103132915039064 0.2422485000000001 L 1.3098587915039064 0.24088500000000007 L 1.3112222915039065 0.24043050000000007 C 1.3121312915039065 0.2381580000000001 1.3171307915039063 0.22997700000000007 1.3180397915039064 0.22906800000000008 C 1.3184942915039064 0.2267955000000001 1.3203122915039065 0.22588650000000007 1.3207667915039063 0.2236140000000001 L 1.3203122915039065 0.22315950000000007 C 1.3207667915039063 0.22134150000000008 1.3225847915039064 0.21997800000000006 1.3225847915039064 0.21816000000000008 C 1.3203122915039065 0.22134150000000008 1.3180397915039064 0.22543200000000008 1.3153127915039065 0.22861350000000008 C 1.3171307915039063 0.22406850000000006 1.3280387915039065 0.20770650000000007 1.3280387915039065 0.2049795000000001 L 1.3280387915039065 0.20407050000000007 C 1.3266752915039064 0.20543400000000006 1.3262207915039064 0.20770650000000007 1.3248572915039065 0.2090700000000001 C 1.3257662915039063 0.20725200000000008 1.3262207915039064 0.2049795000000001 1.3280387915039065 0.20270700000000008 L 1.3280387915039065 0.20088900000000007 L 1.3275842915039064 0.20088900000000007 L 1.3275842915039064 0.19861650000000008 C 1.3280387915039065 0.19816200000000006 1.3289477915039065 0.19588950000000008 1.3294022915039063 0.19543500000000008 C 1.3289477915039065 0.19361700000000007 1.3307657915039064 0.19270800000000007 1.3307657915039064 0.19179900000000008 C 1.3316747915039064 0.1904355000000001 1.3307657915039064 0.18998100000000007 1.3307657915039064 0.18861750000000008 L 1.3312202915039064 0.18589050000000007 C 1.3253117915039065 0.19270800000000007 1.3221302915039064 0.19861650000000008 1.3166762915039065 0.2049795000000001 C 1.3030412915039065 0.22134150000000008 1.2744077915039065 0.2663370000000001 1.2548642915039063 0.2836080000000001 L 1.2530462915039065 0.2836080000000001 C 1.2503192915039065 0.2776995000000001 1.2512282915039064 0.2704275000000001 1.2512282915039064 0.2640645000000001 C 1.2512282915039064 0.2349765000000001 1.2694082915039064 0.17271000000000009 1.2812252915039064 0.14453100000000008 C 1.3075862915039065 0.09726300000000007 1.3112222915039065 0.06772050000000007 1.3057682915039064 0.05499450000000006 C 1.3021322915039064 0.04635900000000004 1.2912242915039065 0.04454100000000005 1.2857702915039064 0.042723000000000066 L 1.2848612915039064 0.043177500000000035 C 1.2789527915039065 0.054085500000000064 1.2744077915039065 0.07090200000000008 1.2703172915039065 0.08226450000000007 C 1.2621362915039065 0.10362600000000005 1.2521372915039064 0.12862350000000006 1.2435017915039064 0.15498450000000008 C 1.2298667915039063 0.16816500000000006 1.2107777915039064 0.17407350000000008 1.1944157915039064 0.17770950000000008 C 1.1925977915039063 0.17725500000000008 1.1916887915039065 0.17634600000000006 1.1903252915039064 0.17498250000000007 C 1.1912342915039065 0.17361900000000008 1.1925977915039063 0.17089200000000007 1.1944157915039064 0.16952850000000008 C 1.1898707915039064 0.16089300000000006 1.1789627915039065 0.15725700000000006 1.1739632915039064 0.15725700000000006 C 1.1725997915039064 0.15725700000000006 1.1716907915039063 0.15725700000000006 1.1712362915039065 0.15771150000000006 M 1.1698727915039064 0.21997800000000006 C 1.1703272915039065 0.21770550000000008 1.1766902915039064 0.20270700000000008 1.1812352915039064 0.19179900000000008 C 1.1821442915039064 0.19270800000000007 1.1830532915039065 0.19270800000000007 1.1835077915039065 0.19270800000000007 L 1.1885072915039063 0.19270800000000007 C 1.1889617915039064 0.21452400000000008 1.1775992915039064 0.24724800000000008 1.1653277915039064 0.26451900000000006 C 1.1648732915039064 0.26451900000000006 1.1630552915039063 0.2649735000000001 1.1626007915039065 0.2654280000000001 C 1.1621462915039065 0.2640645000000001 1.1621462915039065 0.26224650000000005 1.1616917915039064 0.2608830000000001 C 1.1603282915039064 0.25315650000000006 1.1639642915039063 0.23679450000000007 1.1698727915039064 0.21997800000000006" fill="#ffffff" fill-rule="nonzero"></path></g><g></g><g clip-path="url(#SvgjsClipPath1004)"><g clip-path="url(#SvgjsClipPath10011234c88b-981d-49ad-8cc1-88ecaa6bd1dd)"><path d=" M 0.6061840436771306 -0.3795832562115621 C 0.5749522263661176 -0.37455440427165326 0.5480452217234263 -0.368771224540758 0.5230253599402899 -0.35602705501935733 C 0.5127903228604861 -0.3508155763511044 0.505419084622251 -0.34279323412486024 0.4978122843720941 -0.33479206601204725 C 0.46511680647015013 -0.30040001227142815 0.43239750769059515 -0.2661588240890065 0.4195607014229328 -0.21825503921510592 C 0.4120491846832162 -0.19022845332474003 0.4063004128866469 -0.16232097182242455 0.4126288260383953 -0.1332727349590035 C 0.41429364070692304 -0.12562358648198413 0.41527559021729454 -0.11890874576011634 0.4036298278301371 -0.11854084553924926 C 0.3920793489534201 -0.11817823884674006 0.39171938902509007 -0.12540390505513543 0.39067921070278244 -0.133627401358976 C 0.38498072742561196 -0.1781089201495596 0.39613683843967296 -0.22000719710153727 0.41537616725609305 -0.25873200380301475 C 0.44761110819090894 -0.3236041938278395 0.49339748172168996 -0.3731198580866898 0.5687402708382406 -0.3912025509569306 C 0.6113320000050899 -0.4014270009800191 0.653780803906279 -0.4057888683468454 0.6962004934014998 -0.40190341853222095 C 0.7239915172799436 -0.3993598781562986 0.7512055465673876 -0.3872773996796228 0.7771914772758222 -0.3747767324626808 C 0.8088097221569547 -0.35957107225490365 0.8350762098683523 -0.3370603429133641 0.8598155146485253 -0.3133188682286364 C 0.8813390009513351 -0.2926741076332209 0.8946151700726946 -0.26555800862039636 0.9026613331765492 -0.2365785876256266 C 0.9113268390982655 -0.2053652976638658 0.9189627537543903 -0.17400114214390772 0.9146749957845733 -0.14099334606885305 C 0.9138412650682197 -0.13458288322755863 0.9157337014561329 -0.12861178323996159 0.9063668030270079 -0.12810360451761282 C 0.8959729600964699 -0.12753984374750726 0.8972301730814474 -0.13683792630798097 0.8976324812366403 -0.14096687842706412 C 0.8998319422693055 -0.1630408916790852 0.8941519863413874 -0.18401120426850526 0.8905470935297263 -0.2052832479743199 C 0.8842160336137989 -0.24265026465202194 0.8676155286837416 -0.2743161512883746 0.8412299365842931 -0.3019960110713046 C 0.8066287884735414 -0.33829373502073123 0.7648787303155817 -0.3620616773472481 0.7175598803252181 -0.37552311996113036 C 0.6813522117625304 -0.3861316345492854 0.6430680326680159 -0.3875272602795846 0.6061840436771306 -0.3795832562115621 Z" fill="#a77022" transform="matrix(1,0,0,1,0,0)" fill-rule="nonzero"></path></g><g clip-path="url(#SvgjsClipPath10011234c88b-981d-49ad-8cc1-88ecaa6bd1dd)"><path d=" M 1.227302840303636 -0.13340242640376943 C 1.1936730546465397 -0.1293846383802002 1.160090910744664 -0.13459876381263203 1.1264822992009993 -0.13384708278582458 C 1.0992021008090829 -0.1332356802604988 1.0719033750679143 -0.13334949112019145 1.0446125896192826 -0.13334684435601263 C 1.0151805719499207 -0.13334684435601263 0.9857485542805591 -0.13348447609331526 0.9563165366111976 -0.13375973956792087 C 0.9470025734656505 -0.13384178925746681 0.9483762440744994 -0.14226643963890362 0.9479501150416969 -0.14729793834299143 C 0.9472460757701097 -0.15550290729757965 0.9554589850172344 -0.15292231222315267 0.9592756189632076 -0.15302024249777202 C 0.9835570335404307 -0.15365281913652895 1.007864915759443 -0.15348871975743728 1.0321622109217397 -0.15340137653953356 C 1.0724591955454832 -0.15326109803805188 1.1127535334050478 -0.15295672015747852 1.1530505180287913 -0.15276350637241876 C 1.1817255611429878 -0.152625874635116 1.2104032510213627 -0.152334730575437 1.2390703538430232 -0.1526179343425792 C 1.2462007365409775 -0.15268675021123068 1.2516821851554787 -0.15164392512474423 1.2524232791255705 -0.14369569229550938 C 1.2532649501344606 -0.13469669408725127 1.245438468457455 -0.13681410543037076 1.2406028303026062 -0.13556747950210923 C 1.2362674305775676 -0.13446113207532928 1.231744110595829 -0.13409587861864103 1.227302840303636 -0.13340242640376943 Z" fill="#a77022" transform="matrix(1,0,0,1,0,0)" fill-rule="nonzero"></path></g><g clip-path="url(#SvgjsClipPath10011234c88b-981d-49ad-8cc1-88ecaa6bd1dd)"><path d=" M 0.3187057523859706 -0.11853555201089139 C 0.2749203325744375 -0.11287941696058335 0.23091523133605582 -0.1127814866859641 0.18689689627677974 -0.11168307955172085 C 0.1512396892586469 -0.11079376678761055 0.11557718871215586 -0.10832168904451855 0.08004967313878897 -0.10509528351044017 C 0.07270558710952948 -0.10382492796922116 0.06561140986600991 -0.10838801684947497 0.06372178491915884 -0.11559764377231307 C 0.0611623639581629 -0.1238661350671948 0.06973523313361826 -0.1247872090014519 0.07572221370628851 -0.12520010421336014 C 0.1052442213577326 -0.12722487881021827 0.13477152253753444 -0.12930788221901202 0.16433058488748303 -0.1306444981293562 C 0.19708164483718452 -0.13212933283371886 0.22988564007046391 -0.1339608936455171 0.26263670002016537 -0.13352947108435664 C 0.2913196834268983 -0.1331483370425951 0.3190127770307229 -0.14214204172249534 0.3476984072016349 -0.14051957528083003 C 0.35316397523106247 -0.1402099038718987 0.35741997203073245 -0.14170267886879795 0.3578672751769664 -0.13396883393805392 C 0.35821664804858094 -0.12791833102508987 0.35707324592329676 -0.1242843238074609 0.3504166340133645 -0.12340824486424518 C 0.3398242837694089 -0.1220081066136075 0.329276928516495 -0.12016860550927233 0.3187057523859706 -0.11853555201089139 Z" fill="#a77022" transform="matrix(1,0,0,1,0,0)" fill-rule="nonzero"></path></g><g clip-path="url(#SvgjsClipPath10011234c88b-981d-49ad-8cc1-88ecaa6bd1dd)"><path d=" M 0.38103969556323053 -0.2566542939225786 C 0.38275479875115753 -0.24712594287854067 0.3738749049309499 -0.24156773810285198 0.3628087838989713 -0.24522821296226976 C 0.32784767585988905 -0.2568130997733126 0.2929342095760268 -0.2685409118500159 0.25816896208618284 -0.28071073354459547 C 0.22327931667993065 -0.29292555023021627 0.1874765376319586 -0.3019245484384742 0.15197284293620134 -0.3120060731959022 C 0.1425880061273599 -0.31458194472288015 0.13342894131629462 -0.31791911243697263 0.12458677397712928 -0.321984374150353 C 0.11953674792378903 -0.3243664619113623 0.11199876354228375 -0.3274605292364959 0.11582863130915116 -0.33555698085974905 C 0.11892799216264258 -0.3421156624950619 0.1248832115651661 -0.3421871251278921 0.13157158464524493 -0.34020734552207543 C 0.1626287155204506 -0.33101513352875767 0.19406433367323886 -0.3230219057084815 0.22486472842309171 -0.31304889828238847 C 0.27171245438961134 -0.29788029277311584 0.31818433984272726 -0.2815735786669165 0.3646773994092744 -0.2653462674860842 C 0.3705426288297155 -0.26329767201161614 0.377694185641102 -0.2624374736534738 0.38103969556323053 -0.2566542939225786 Z" fill="#a77022" transform="matrix(1,0,0,1,0,0)" fill-rule="nonzero"></path></g><g clip-path="url(#SvgjsClipPath10011234c88b-981d-49ad-8cc1-88ecaa6bd1dd)"><path d=" M 0.4765402406662794 -0.3932776140731878 C 0.4491091767161656 -0.4330293652760781 0.4252724185209974 -0.475081154550432 0.40009375088712723 -0.5163124469293271 C 0.38048916861401955 -0.5484150496551982 0.3588412843948013 -0.5792630861602708 0.3381938770352067 -0.610730465483206 C 0.3344037107310229 -0.6165057049215644 0.327058940134577 -0.6233052420971571 0.3354518293458671 -0.6293557450101213 C 0.34370179329149647 -0.6353030241201081 0.34924147071793316 -0.6284637854818321 0.3543550191115668 -0.6216033727301247 C 0.3923996074190672 -0.5705578787758705 0.42332440008532807 -0.5149784777831617 0.45699918073346496 -0.46115123467688424 C 0.46545294552086963 -0.44763421001524484 0.47264685055911854 -0.43309553438055043 0.4826727932687897 -0.42085425005314053 C 0.49322808881424024 -0.4079592149735427 0.4901446085458225 -0.4004106435353217 0.4765402406662794 -0.3932776140731878 Z" fill="#a77022" transform="matrix(1,0,0,1,0,0)" fill-rule="nonzero"></path></g><g clip-path="url(#SvgjsClipPath10011234c88b-981d-49ad-8cc1-88ecaa6bd1dd)"><path d=" M 1.0978972460688854 -0.506577648279335 C 1.1032648838236936 -0.508475378195606 1.1081561040262997 -0.5076363539508948 1.1102232268500205 -0.5032506657064584 C 1.1131346674468099 -0.4970863519338016 1.1087516259665522 -0.4933067726863333 1.1039795101519965 -0.48954042725975944 C 1.0684228801726614 -0.4614847269634256 1.032680976700804 -0.4336169469237936 0.9977648636527628 -0.40476721737379 C 0.967994060168502 -0.38016819109509886 0.9350868411322457 -0.36003690275038985 0.904373789600297 -0.3368009600238319 C 0.8991967188663695 -0.33288639580323975 0.8941758072189975 -0.3279528273737712 0.8876753543956207 -0.3366156865313089 C 0.8815083938587849 -0.3448206554858972 0.8847850879122624 -0.34895754789751704 0.8916005056729285 -0.3533458829061323 C 0.9595561759661709 -0.39709689478333965 1.0210855028330454 -0.44932284556138297 1.08432199259531 -0.49930434031571963 C 1.0884244770726044 -0.5025466264348714 1.092098185752917 -0.5074696078076242 1.0978972460688854 -0.506577648279335 Z" fill="#a77022" transform="matrix(1,0,0,1,0,0)" fill-rule="nonzero"></path></g><g clip-path="url(#SvgjsClipPath10011234c88b-981d-49ad-8cc1-88ecaa6bd1dd)"><path d=" M 0.9401262801288701 -0.6331617918993786 C 0.9380988587678332 -0.6230537995001616 0.9309578890131622 -0.6128558171188623 0.924862391109157 -0.6026657750300995 C 0.886968668359854 -0.5393181211723208 0.8510811928581569 -0.47470531403702826 0.8073804695003488 -0.41494402564165833 C 0.8045194756884319 -0.4101531734109002 0.798859520333023 -0.40779996500197535 0.7934452560984435 -0.4091502588540475 C 0.7870374400213277 -0.4102698401017219 0.7810372256277628 -0.4123660773314102 0.7875244446302454 -0.4218997219038059 C 0.8134627335834594 -0.4599893052023475 0.8394010225366739 -0.4981265302561092 0.8637300788691176 -0.537232470999348 C 0.8819054084856196 -0.5664553942985764 0.8975451380187364 -0.5972531422842502 0.9144526675935462 -0.6272700948371485 C 0.9184598685603997 -0.6343819501858512 0.9220303534377352 -0.6420178648419761 0.9324241963682728 -0.6419649295583982 C 0.9375403915260856 -0.641938461916609 0.9396578028692046 -0.6401121946331684 0.9401262801288701 -0.6331617918993786 Z" fill="#a77022" transform="matrix(1,0,0,1,0,0)" fill-rule="nonzero"></path></g><g clip-path="url(#SvgjsClipPath10011234c88b-981d-49ad-8cc1-88ecaa6bd1dd)"><path d=" M 0.3699815148237888 -0.21657169719732583 C 0.36812877989855897 -0.20672308768764114 0.3680096755105087 -0.19810522352114457 0.3549187798816722 -0.20156189753878728 C 0.32277118216475986 -0.21004477673216 0.2903589080299574 -0.21750865171665623 0.2581239670951415 -0.2256659789160242 C 0.2086665316482269 -0.23818252671803947 0.1593096732401108 -0.2510749150334587 0.10981518309469152 -0.26344059727727664 C 0.10141435359086476 -0.2655368345069649 0.09456452789587326 -0.2680803748828873 0.0979788536866534 -0.2781592528761363 C 0.10118143834312182 -0.28761084775898615 0.10887293504700336 -0.2833045624399168 0.11495784589429306 -0.28180120038630185 C 0.19708340934663696 -0.26148816756797505 0.2791842696666441 -0.24107720447502912 0.3612604268543149 -0.22056831110746378 C 0.36429429430278154 -0.21953235905446905 0.3672160765068369 -0.21819339361346063 0.3699815148237888 -0.21657169719732583 Z" fill="#a77022" transform="matrix(1,0,0,1,0,0)" fill-rule="nonzero"></path></g><g clip-path="url(#SvgjsClipPath10011234c88b-981d-49ad-8cc1-88ecaa6bd1dd)"><path d=" M 0.5839697519236277 -0.6775083257168384 C 0.5913515772185782 -0.6016652981704755 0.5999747349134327 -0.530366764719283 0.6110937912289894 -0.45938848973373736 C 0.6125839194617096 -0.4498601386896995 0.6107444183573748 -0.4452388884333411 0.5999297399223916 -0.4435237852454143 C 0.5869605954457846 -0.4414672494784095 0.5887471612665415 -0.4521998782238466 0.5885142460187983 -0.45688465082049845 C 0.5868494313502706 -0.49079234671637884 0.5804654361507652 -0.524027764510819 0.5763629516734712 -0.5575702069500112 C 0.5708047468977822 -0.6030098543733564 0.570135115560521 -0.6490317899160594 0.5612896296746389 -0.6941776465155468 C 0.5604797198358953 -0.6983145389271666 0.5598683173105699 -0.7032242864790251 0.5665513968622908 -0.7042750518580483 C 0.5716940596618925 -0.7050849616967914 0.5756059771183061 -0.7037774601924149 0.5774904732136824 -0.6989815235002493 C 0.5807539334462649 -0.6906574501576106 0.5839247569325866 -0.682259267417963 0.5839697519236277 -0.6775083257168384 Z" fill="#a77022" transform="matrix(1,0,0,1,0,0)" fill-rule="nonzero"></path></g><g clip-path="url(#SvgjsClipPath10011234c88b-981d-49ad-8cc1-88ecaa6bd1dd)"><path d=" M 0.41503208791283586 -0.32719055929024804 C 0.4128917770841141 -0.3229663448796872 0.41036948572295684 -0.31894680293884736 0.40749675029550925 -0.3151821902105814 C 0.40420152889277977 -0.3115852376914572 0.4018035605466969 -0.3160079806343981 0.399162089896155 -0.31740811888503584 C 0.37622523152181253 -0.32955941323036314 0.35964060717682894 -0.34947102014822334 0.34049920863502847 -0.3661562215320054 C 0.31041608697765766 -0.39237771425236184 0.28167222799480995 -0.4201316834323013 0.25229843913738437 -0.44716573275557975 C 0.2457979863140074 -0.45314477303571354 0.23928694643391474 -0.45916880830688866 0.2323047825299782 -0.46455497341094887 C 0.22515851924694966 -0.4700761234881331 0.2179804947937746 -0.47793701309946435 0.22383513715750003 -0.4851997340063644 C 0.22997298328836766 -0.4928118277848791 0.23906991177124504 -0.4870074739405527 0.24567358839759898 -0.4809410904425153 C 0.2723132698582218 -0.4564796959011268 0.2988735483934773 -0.43192831137765597 0.3257196774600543 -0.4076892450272951 C 0.3509777480192914 -0.38488207809771874 0.37657725115760654 -0.3624560452099041 0.40196236639743116 -0.33979180354598826 C 0.4064724525582753 -0.3357819558149556 0.4106702205460096 -0.33142008844812937 0.41503208791283586 -0.32719055929024804 Z" fill="#a77022" transform="matrix(1,0,0,1,0,0)" fill-rule="nonzero"></path></g><g clip-path="url(#SvgjsClipPath10011234c88b-981d-49ad-8cc1-88ecaa6bd1dd)"><path d=" M 0.9348671597053971 -0.24080282325515007 C 0.9309737695982359 -0.24871929491423816 0.9331944047443326 -0.2509399300603349 0.9393666588095262 -0.25335113222731215 C 0.9804338518093296 -0.26942493108576837 1.021106676946477 -0.2864700923978805 1.0632722770805234 -0.29966950535805204 C 1.0931648317170133 -0.30902581673046153 1.1228244711057602 -0.31914439618639395 1.1523676528706357 -0.3295779405796155 C 1.1604164627386688 -0.33241791854357444 1.168094725621656 -0.33200237656748727 1.1713528923258814 -0.32513137675906445 C 1.1746772281345788 -0.31811745168498107 1.1685208546544583 -0.3134088582107189 1.161414292834114 -0.3111247007243288 C 1.143172794113139 -0.30525947130388764 1.1252674344428844 -0.29815555624772166 1.1067586125398408 -0.2933622663197348 C 1.0678511791100194 -0.2832833883264858 1.0309685202770562 -0.2678024646441031 0.9936570856471112 -0.2533961272183535 C 0.9768236654693108 -0.24689302763079762 0.9597282156377998 -0.2410330917387143 0.9430721286599855 -0.23411709693925015 C 0.9322680372817181 -0.2296228913634788 0.9365452081948195 -0.2395191426283838 0.9348671597053971 -0.24080282325515007 Z" fill="#a77022" transform="matrix(1,0,0,1,0,0)" fill-rule="nonzero"></path></g><g clip-path="url(#SvgjsClipPath10011234c88b-981d-49ad-8cc1-88ecaa6bd1dd)"><path d=" M 0.973943986042668 -0.5464617376911705 C 0.9739704536844571 -0.5413587763542522 0.9707414013861997 -0.5379073958649674 0.9678564284311996 -0.5346624629816368 C 0.9333408590288984 -0.4956668040791852 0.9004327577379156 -0.45536540818181004 0.8691321245582515 -0.4137582752895113 C 0.8617476524991222 -0.403922899600721 0.8537226635086987 -0.3945612946999538 0.8465605196405972 -0.38457505345296633 C 0.8421086622916883 -0.3783710382176261 0.8389219582202934 -0.37716411375204795 0.8319715554865036 -0.3821929656919569 C 0.8241530141020349 -0.3878623345631594 0.8283004935703704 -0.39119196390021477 0.8316592373133933 -0.3962711043595229 C 0.8545008121772953 -0.43074785455386677 0.8807964142946612 -0.4626228355603525 0.9065626635762468 -0.49483924914591615 C 0.9218768411153587 -0.5139859412160743 0.9397319122662144 -0.5310813910475858 0.9556469052739364 -0.5497781332073314 C 0.9580312924834887 -0.5527376123229075 0.9618001404340923 -0.5542195965811132 0.9655616838880935 -0.55367681684285 C 0.9700982376907268 -0.5536397621443454 0.9711225354279612 -0.548838531923822 0.973943986042668 -0.5464617376911705 Z" fill="#a77022" transform="matrix(1,0,0,1,0,0)" fill-rule="nonzero"></path></g><g clip-path="url(#SvgjsClipPath10011234c88b-981d-49ad-8cc1-88ecaa6bd1dd)"><path d=" M 0.9400601110243976 -0.20414778614157203 C 0.9914073360950463 -0.2156373894421743 1.0441732267655852 -0.21858323797328932 1.0965024013466054 -0.22463374088625343 C 1.1132790498386176 -0.2261591602952352 1.1299648167424925 -0.22855773376608907 1.1464918363934782 -0.2318197056319652 C 1.1534528261839845 -0.23336806267662136 1.1616419145534995 -0.23641978177489248 1.1642039822786736 -0.22646794846223067 C 1.166911622033688 -0.2159470608511055 1.1582196484701823 -0.2148724745944724 1.1509066390438831 -0.21373701276172452 C 1.1100961821694333 -0.20740595284579716 1.0693730685128866 -0.20070169918064484 1.02804913938773 -0.197959651491305 C 1.007310185301117 -0.1962191802761737 0.9867144637302546 -0.19306305617628494 0.9664060016611631 -0.18851335013681314 C 0.9527831064323672 -0.1856998398146431 0.9422251641227373 -0.1853292928295972 0.9400601110243976 -0.20414778614157203 Z" fill="#a77022" transform="matrix(1,0,0,1,0,0)" fill-rule="nonzero"></path></g><g clip-path="url(#SvgjsClipPath10011234c88b-981d-49ad-8cc1-88ecaa6bd1dd)"><path d=" M 0.7490246128839746 -0.43584816912660596 C 0.7493633986988737 -0.4367930639384731 0.7503479949734242 -0.4392889625591753 0.7511790789255983 -0.4418483835201709 C 0.770450168912165 -0.5001565983813252 0.788268185364516 -0.5589862257857225 0.8130948333625926 -0.6153067207485232 C 0.8157707119474596 -0.6213783977749183 0.8167791290996208 -0.6307717638458326 0.8271835590868742 -0.6268227916909145 C 0.8370956909368523 -0.6230617397926984 0.8336151960415994 -0.6148964723007939 0.8309975462686684 -0.608520417393825 C 0.8073540018585597 -0.550895067690827 0.788561976188374 -0.49156784862079633 0.7684042202018757 -0.432714400338789 C 0.7675069671452287 -0.43009675056585756 0.7689123989242245 -0.42161122460830597 0.7610912107755768 -0.4252081771274302 C 0.7566234728415947 -0.427264712894435 0.7494216275108093 -0.4262271813363065 0.7490246128839746 -0.43584816912660596 Z" fill="#a77022" transform="matrix(1,0,0,1,0,0)" fill-rule="nonzero"></path></g><g clip-path="url(#SvgjsClipPath10011234c88b-981d-49ad-8cc1-88ecaa6bd1dd)"><path d=" M 0.6509434727064985 -0.6245254003836298 C 0.6527962076317284 -0.5844348633658404 0.6586984917506737 -0.5402100807006098 0.6579388704313299 -0.4955909301727236 C 0.6577191890044813 -0.4827779447826714 0.6617607979056604 -0.470446670473179 0.6605856346102291 -0.4572128495786819 C 0.659619565684931 -0.446451106427277 0.6531164660973751 -0.4494313628927176 0.6480187982888146 -0.4487140898002359 C 0.6398985257879513 -0.4475706876749513 0.6390700885999557 -0.4537799964386493 0.6390727353641349 -0.4595817035187969 C 0.6390886159492081 -0.49230894259088825 0.6368521002180382 -0.5248747290480665 0.6343562015973359 -0.5575119781380753 C 0.6322679046601842 -0.5848239377001384 0.6320402829407988 -0.612281469292041 0.6280489625590185 -0.6394716777018747 C 0.627301631087355 -0.64252277993356 0.6279813242128592 -0.6457481679183112 0.6298963562858939 -0.6482382244068237 C 0.6318113883589281 -0.6507282808953364 0.634754221982723 -0.6522131514821877 0.6378949253045244 -0.6522740760352111 C 0.6436436971010938 -0.6527531403515918 0.6482940617634202 -0.6494896801190089 0.6483311164619249 -0.6421846109852466 C 0.6488468270966925 -0.636251128184905 0.6497191897214694 -0.6303540629037394 0.6509434727064985 -0.62452540038363 Z" fill="#a77022" transform="matrix(1,0,0,1,0,0)" fill-rule="nonzero"></path></g><g clip-path="url(#SvgjsClipPath10011234c88b-981d-49ad-8cc1-88ecaa6bd1dd)"><path d=" M 0.4580764137542768 -0.3745491107432954 C 0.44203966959432534 -0.3612544142726836 0.442764882979344 -0.36181288151443136 0.429411957696796 -0.3791359530653281 C 0.39483992399201207 -0.4239747850200631 0.3594262192783377 -0.46816251298678896 0.3247721358840078 -0.5129378226012303 C 0.32083639754998444 -0.5180196098247173 0.31073105191494665 -0.5244380129585484 0.3207014125768605 -0.5318198382534989 C 0.32970041078511847 -0.5384843904559675 0.33575885399061917 -0.5309040578475996 0.34113178527378524 -0.524027764510819 C 0.38006921536430077 -0.47416978541816435 0.4190507581911316 -0.4243435674956565 0.4580764137542768 -0.3745491107432954 Z" fill="#a77022" transform="matrix(1,0,0,1,0,0)" fill-rule="nonzero"></path></g><g clip-path="url(#SvgjsClipPath10011234c88b-981d-49ad-8cc1-88ecaa6bd1dd)"><path d=" M 0.22094487067414167 -0.376692989728204 C 0.22525031697903256 -0.3753299599528239 0.22948048707098176 -0.3737396704445723 0.2336175775627121 -0.3719288142061851 C 0.28414695250208083 -0.34784326017820016 0.33317825891619246 -0.320642464711651 0.3849780806614329 -0.29918779427749226 C 0.39236255272056214 -0.2961307816508635 0.3966238430485903 -0.2923062074123537 0.3926404629593468 -0.28280432401010486 C 0.3883077099984884 -0.2724819437123972 0.3813890684348455 -0.27760078563438856 0.37683398728295964 -0.2797631919685495 C 0.32438217929498364 -0.3046586558352774 0.27212182058261464 -0.32995201658356654 0.22005291114585257 -0.3556432742134168 C 0.21502405920594375 -0.3581206454848666 0.20804983559454382 -0.3610638472518028 0.20867182517658509 -0.36878445836165236 C 0.20905825274670428 -0.37392712116125404 0.21312632928967284 -0.37614510954317176 0.22094487067414167 -0.376692989728204 Z" fill="#a77022" transform="matrix(1,0,0,1,0,0)" fill-rule="nonzero"></path></g><g clip-path="url(#SvgjsClipPath10011234c88b-981d-49ad-8cc1-88ecaa6bd1dd)"><path d=" M 0.742087443971079 -0.5858879369000561 C 0.7407270071831247 -0.5758302330202383 0.739326868932487 -0.5631972275943514 0.7372597461087668 -0.5506859733206939 C 0.7317862377868026 -0.5175299584516209 0.7253890087664027 -0.4845168688482084 0.720757171453329 -0.4512391028269061 C 0.7193437993817963 -0.44107817514411124 0.7141905495254792 -0.4421262937589554 0.7077589125707536 -0.44258947749026284 C 0.6994745406907987 -0.44318764619469414 0.6997074559385419 -0.44659403169293765 0.7007661616101014 -0.45466401567440207 C 0.7065255204633867 -0.4985394254680176 0.7145293353403787 -0.5420072335780829 0.7217655886054892 -0.5856312007747029 C 0.7229989807128566 -0.5930686081174102 0.7244441139545353 -0.5989073698960624 0.7325987943897244 -0.5995320062422828 C 0.7399991470339273 -0.6000931202482093 0.7417751257979687 -0.5946090248695296 0.742087443971079 -0.5858879369000561 Z" fill="#a77022" transform="matrix(1,0,0,1,0,0)" fill-rule="nonzero"></path></g><g clip-path="url(#SvgjsClipPath10011234c88b-981d-49ad-8cc1-88ecaa6bd1dd)"><path d=" M 0.46809970969976933 -0.5624614271526175 C 0.4788852737287843 -0.5642876944360579 0.48157703289872505 -0.5569032223769287 0.48345094193738547 -0.552157574204162 C 0.49853749775711237 -0.5138536030071297 0.5153391567647658 -0.47630660636526245 0.5328766162141532 -0.43910104230247343 C 0.5375322744048374 -0.4292286119151786 0.5328951435634055 -0.42500702304983407 0.5255318456177073 -0.4219420701306686 C 0.5168689864601695 -0.4183371773190075 0.5162311162930548 -0.42635951954525164 0.5139734264484539 -0.43138043119262387 C 0.4982066522347502 -0.4664659371481144 0.4820296295733168 -0.5013846969603344 0.46716804870879663 -0.5368513369575868 C 0.4638278323150252 -0.5448022165510005 0.4589127912348091 -0.5556142482218046 0.46809970969976933 -0.5624614271526175 Z" fill="#a77022" transform="matrix(1,0,0,1,0,0)" fill-rule="nonzero"></path></g><g clip-path="url(#SvgjsClipPath10011234c88b-981d-49ad-8cc1-88ecaa6bd1dd)"><path d=" M 1.0111680774547094 -0.35318972381957714 C 1.0096951205659075 -0.3478825237553517 1.0061393875180533 -0.3433960954802066 1.0013088808883088 -0.3407499321787499 C 0.9753361840007692 -0.3252822423172617 0.9494640641520272 -0.3096133983781771 0.9241371777241387 -0.29312405754363385 C 0.9170094417903624 -0.2884842799380232 0.9146088266801005 -0.29354753981225784 0.912602579432495 -0.29694598501796465 C 0.908367756746256 -0.30412930299949764 0.9106307401192152 -0.309803965399058 0.9183513512290647 -0.3142055342285678 C 0.9429662580928292 -0.3282333843767347 0.9672556129625891 -0.3427905873606816 0.9916667189845786 -0.3571757506729999 C 0.9934823992113038 -0.35823445634455964 0.9950757512470012 -0.36018512154440846 0.9969814214558089 -0.36051596706677097 C 1.0032304316821898 -0.36160378714429825 1.0074758414251446 -0.3581285857774035 1.0111680774547094 -0.35318972381957714 Z" fill="#a77022" transform="matrix(1,0,0,1,0,0)" fill-rule="nonzero"></path></g><g clip-path="url(#SvgjsClipPath10011234c88b-981d-49ad-8cc1-88ecaa6bd1dd)"><path d=" M 0.3469731938166163 -0.1640493088312458 C 0.322638843955815 -0.16491744748192483 0.2982912602741192 -0.16557384499829186 0.27397279099839134 -0.1667966500489435 C 0.2679408154346796 -0.16709838116533793 0.26177120813366506 -0.16902787225175564 0.262112640712743 -0.1772910700182796 C 0.26252818268883044 -0.18727995802944597 0.2705055299240333 -0.18689882398768454 0.2768260027832448 -0.18678501312799178 C 0.3005118954202156 -0.18635888409518908 0.3242242556989756 -0.18574748156986332 0.3478228051180427 -0.1838735725312025 C 0.35179295138639183 -0.18355596082973458 0.3608342978215124 -0.18820632549206084 0.3614139391766912 -0.1777410199286925 C 0.3619882870035125 -0.16733658994143885 0.35665241041885154 -0.16364964744023203 0.3469731938166163 -0.1640493088312458 Z" fill="#a77022" transform="matrix(1,0,0,1,0,0)" fill-rule="nonzero"></path></g></g></g><defs><clipPath id="SvgjsClipPath1004"><path d=" M 0.0632665414803878 -0.7044973800490757 h 1.1892255535138339 v 0.5994973800490757 h -1.1892255535138339 Z"></path></clipPath><clipPath id="SvgjsClipPath10011234c88b-981d-49ad-8cc1-88ecaa6bd1dd"><path d=" M 0.0632665414803878 -0.7044973800490757 L 1.2524920949942215 -0.7044973800490757 L 1.2524920949942215 -0.10499999999999987 L 0.0632665414803878 -0.10499999999999987 Z"></path></clipPath></defs></svg>